<svg width="66.969" height="45.613" viewBox="0 0 66.969 45.613" xmlns="http://www.w3.org/2000/svg"><g id="svgGroup" stroke-linecap="round" fill-rule="evenodd" font-size="9pt" stroke="#000000" stroke-width="0.25mm" fill="#ffffff" style="stroke:#000000;stroke-width:0.25mm;fill:#ffffff"><path d="M 30.807 2.268 L 28.98 7.308 Q 27.027 6.363 24.98 5.796 A 14.499 14.499 0 0 0 23.05 5.408 Q 22.052 5.274 20.926 5.24 A 25.645 25.645 0 0 0 20.16 5.229 A 13.339 13.339 0 0 0 15.18 6.146 A 12.588 12.588 0 0 0 12.947 7.308 A 13.335 13.335 0 0 0 8.937 11.454 A 16.996 16.996 0 0 0 7.938 13.293 A 18.385 18.385 0 0 0 6.568 17.609 Q 6.183 19.602 6.123 21.887 A 32.503 32.503 0 0 0 6.111 22.743 A 26.374 26.374 0 0 0 6.499 27.377 A 19.485 19.485 0 0 0 7.907 32.004 A 16.177 16.177 0 0 0 10.166 35.676 A 13.496 13.496 0 0 0 12.884 38.178 A 12.413 12.413 0 0 0 19.905 40.381 A 15.054 15.054 0 0 0 20.16 40.383 Q 23.247 40.383 25.515 39.627 Q 27.783 38.871 29.925 37.674 L 31.752 42.651 A 23.663 23.663 0 0 1 28.921 43.939 A 30.173 30.173 0 0 1 26.429 44.762 A 21.163 21.163 0 0 1 23.301 45.386 Q 21.737 45.584 19.975 45.609 A 36.172 36.172 0 0 1 19.467 45.612 A 20.402 20.402 0 0 1 13.593 44.792 A 17.615 17.615 0 0 1 9.324 42.872 A 18.018 18.018 0 0 1 3.102 36.291 A 21.997 21.997 0 0 1 2.457 35.06 A 23.695 23.695 0 0 1 0.505 28.938 Q 0 26.164 0 22.995 Q 0 16.254 2.489 11.057 Q 4.977 5.859 9.545 2.93 A 18.504 18.504 0 0 1 17.534 0.15 A 23.494 23.494 0 0 1 20.223 0 Q 23.373 0 25.956 0.599 A 24.081 24.081 0 0 1 30.665 2.202 A 22.426 22.426 0 0 1 30.807 2.268 Z M 66.024 2.268 L 64.197 7.308 Q 62.244 6.363 60.197 5.796 A 14.499 14.499 0 0 0 58.267 5.408 Q 57.269 5.274 56.143 5.24 A 25.645 25.645 0 0 0 55.377 5.229 A 13.339 13.339 0 0 0 50.397 6.146 A 12.588 12.588 0 0 0 48.164 7.308 A 13.335 13.335 0 0 0 44.154 11.454 A 16.996 16.996 0 0 0 43.155 13.293 A 18.385 18.385 0 0 0 41.785 17.609 Q 41.4 19.602 41.34 21.887 A 32.503 32.503 0 0 0 41.328 22.743 A 26.374 26.374 0 0 0 41.716 27.377 A 19.485 19.485 0 0 0 43.124 32.004 A 16.177 16.177 0 0 0 45.383 35.676 A 13.496 13.496 0 0 0 48.101 38.178 A 12.413 12.413 0 0 0 55.122 40.381 A 15.054 15.054 0 0 0 55.377 40.383 Q 58.464 40.383 60.732 39.627 Q 63 38.871 65.142 37.674 L 66.969 42.651 A 23.663 23.663 0 0 1 64.138 43.939 A 30.173 30.173 0 0 1 61.646 44.762 A 21.163 21.163 0 0 1 58.518 45.386 Q 56.954 45.584 55.192 45.609 A 36.172 36.172 0 0 1 54.684 45.612 A 20.402 20.402 0 0 1 48.81 44.792 A 17.615 17.615 0 0 1 44.541 42.872 A 18.018 18.018 0 0 1 38.319 36.291 A 21.997 21.997 0 0 1 37.674 35.06 A 23.695 23.695 0 0 1 35.722 28.938 Q 35.217 26.164 35.217 22.995 Q 35.217 16.254 37.706 11.057 Q 40.194 5.859 44.762 2.93 A 18.504 18.504 0 0 1 52.751 0.15 A 23.494 23.494 0 0 1 55.44 0 Q 58.59 0 61.173 0.599 A 24.081 24.081 0 0 1 65.882 2.202 A 22.426 22.426 0 0 1 66.024 2.268 Z" vector-effect="non-scaling-stroke"/></g></svg>